<mxfile host="app.diagrams.net" agent="Mozilla/5.0 (Macintosh; Intel Mac OS X 10_15_7) AppleWebKit/605.1.15 (KHTML, like Gecko) Version/18.5 Safari/605.1.15" version="27.1.6">
  <diagram name="Seite-1" id="Ly8_jdr_lP5sy3wvXu7F">
    <mxGraphModel dx="1257" dy="697" grid="1" gridSize="10" guides="1" tooltips="1" connect="1" arrows="1" fold="1" page="1" pageScale="1" pageWidth="827" pageHeight="1169" math="0" shadow="0">
      <root>
        <mxCell id="0" />
        <mxCell id="1" parent="0" />
        <mxCell id="ONpwpBKbFHLgvq9Ydx1U-1" style="edgeStyle=none;curved=1;rounded=0;orthogonalLoop=1;jettySize=auto;html=1;exitX=1;exitY=0;exitDx=0;exitDy=0;fontSize=12;startSize=8;endSize=8;" edge="1" parent="1" source="ONpwpBKbFHLgvq9Ydx1U-6" target="ONpwpBKbFHLgvq9Ydx1U-7">
          <mxGeometry relative="1" as="geometry" />
        </mxCell>
        <mxCell id="ONpwpBKbFHLgvq9Ydx1U-2" style="edgeStyle=none;curved=1;rounded=0;orthogonalLoop=1;jettySize=auto;html=1;exitX=1;exitY=0.25;exitDx=0;exitDy=0;fontSize=12;startSize=8;endSize=8;" edge="1" parent="1" source="ONpwpBKbFHLgvq9Ydx1U-6" target="ONpwpBKbFHLgvq9Ydx1U-8">
          <mxGeometry relative="1" as="geometry" />
        </mxCell>
        <mxCell id="ONpwpBKbFHLgvq9Ydx1U-3" style="edgeStyle=none;curved=1;rounded=0;orthogonalLoop=1;jettySize=auto;html=1;exitX=1;exitY=0.5;exitDx=0;exitDy=0;fontSize=12;startSize=8;endSize=8;" edge="1" parent="1" source="ONpwpBKbFHLgvq9Ydx1U-6" target="ONpwpBKbFHLgvq9Ydx1U-9">
          <mxGeometry relative="1" as="geometry" />
        </mxCell>
        <mxCell id="ONpwpBKbFHLgvq9Ydx1U-4" style="edgeStyle=none;curved=1;rounded=0;orthogonalLoop=1;jettySize=auto;html=1;exitX=1;exitY=0.75;exitDx=0;exitDy=0;fontSize=12;startSize=8;endSize=8;" edge="1" parent="1" source="ONpwpBKbFHLgvq9Ydx1U-6" target="ONpwpBKbFHLgvq9Ydx1U-10">
          <mxGeometry relative="1" as="geometry" />
        </mxCell>
        <mxCell id="ONpwpBKbFHLgvq9Ydx1U-5" style="edgeStyle=none;curved=1;rounded=0;orthogonalLoop=1;jettySize=auto;html=1;exitX=1;exitY=1;exitDx=0;exitDy=0;fontSize=12;startSize=8;endSize=8;" edge="1" parent="1" source="ONpwpBKbFHLgvq9Ydx1U-6" target="ONpwpBKbFHLgvq9Ydx1U-11">
          <mxGeometry relative="1" as="geometry" />
        </mxCell>
        <mxCell id="ONpwpBKbFHLgvq9Ydx1U-6" value="Vue 1.: Core Concepts" style="rounded=0;whiteSpace=wrap;html=1;" vertex="1" parent="1">
          <mxGeometry x="40" y="200" width="120" height="40" as="geometry" />
        </mxCell>
        <mxCell id="ONpwpBKbFHLgvq9Ydx1U-7" value="Vue 1.1: Reaktivität: reactive, ref, computed, watch" style="rounded=0;whiteSpace=wrap;html=1;" vertex="1" parent="1">
          <mxGeometry x="240" y="40" width="240" height="40" as="geometry" />
        </mxCell>
        <mxCell id="ONpwpBKbFHLgvq9Ydx1U-8" value="Template Syntax: Direktiven (v-if, v-for, v-bind, v-model), Slot-Syntax, v-on" style="rounded=0;whiteSpace=wrap;html=1;" vertex="1" parent="1">
          <mxGeometry x="240" y="120" width="240" height="40" as="geometry" />
        </mxCell>
        <mxCell id="ONpwpBKbFHLgvq9Ydx1U-9" value="Komponenten: Props, Emits, Lifecycles (onMounted, onUpdated), Provide/Inject" style="rounded=0;whiteSpace=wrap;html=1;" vertex="1" parent="1">
          <mxGeometry x="240" y="200" width="240" height="40" as="geometry" />
        </mxCell>
        <mxCell id="ONpwpBKbFHLgvq9Ydx1U-10" value="Composition API &amp;amp; Options API: Beide Paradigmen verstehen und mischen können" style="rounded=0;whiteSpace=wrap;html=1;" vertex="1" parent="1">
          <mxGeometry x="240" y="280" width="240" height="40" as="geometry" />
        </mxCell>
        <mxCell id="ONpwpBKbFHLgvq9Ydx1U-11" value="Reactivity Caveats: Limits der Reaktivität, shallowReactive, toRefs, readonly" style="rounded=0;whiteSpace=wrap;html=1;" vertex="1" parent="1">
          <mxGeometry x="240" y="360" width="240" height="40" as="geometry" />
        </mxCell>
        <mxCell id="ONpwpBKbFHLgvq9Ydx1U-23" style="edgeStyle=none;curved=1;rounded=0;orthogonalLoop=1;jettySize=auto;html=1;exitX=1;exitY=0;exitDx=0;exitDy=0;fontSize=12;startSize=8;endSize=8;" edge="1" parent="1" source="ONpwpBKbFHLgvq9Ydx1U-28" target="ONpwpBKbFHLgvq9Ydx1U-29">
          <mxGeometry relative="1" as="geometry" />
        </mxCell>
        <mxCell id="ONpwpBKbFHLgvq9Ydx1U-24" style="edgeStyle=none;curved=1;rounded=0;orthogonalLoop=1;jettySize=auto;html=1;exitX=1;exitY=0.25;exitDx=0;exitDy=0;fontSize=12;startSize=8;endSize=8;" edge="1" parent="1" source="ONpwpBKbFHLgvq9Ydx1U-28" target="ONpwpBKbFHLgvq9Ydx1U-30">
          <mxGeometry relative="1" as="geometry" />
        </mxCell>
        <mxCell id="ONpwpBKbFHLgvq9Ydx1U-25" style="edgeStyle=none;curved=1;rounded=0;orthogonalLoop=1;jettySize=auto;html=1;exitX=1;exitY=0.5;exitDx=0;exitDy=0;fontSize=12;startSize=8;endSize=8;" edge="1" parent="1" source="ONpwpBKbFHLgvq9Ydx1U-28" target="ONpwpBKbFHLgvq9Ydx1U-31">
          <mxGeometry relative="1" as="geometry" />
        </mxCell>
        <mxCell id="ONpwpBKbFHLgvq9Ydx1U-26" style="edgeStyle=none;curved=1;rounded=0;orthogonalLoop=1;jettySize=auto;html=1;exitX=1;exitY=0.75;exitDx=0;exitDy=0;fontSize=12;startSize=8;endSize=8;" edge="1" parent="1" source="ONpwpBKbFHLgvq9Ydx1U-28" target="ONpwpBKbFHLgvq9Ydx1U-32">
          <mxGeometry relative="1" as="geometry" />
        </mxCell>
        <mxCell id="ONpwpBKbFHLgvq9Ydx1U-27" style="edgeStyle=none;curved=1;rounded=0;orthogonalLoop=1;jettySize=auto;html=1;exitX=1;exitY=1;exitDx=0;exitDy=0;fontSize=12;startSize=8;endSize=8;" edge="1" parent="1" source="ONpwpBKbFHLgvq9Ydx1U-28" target="ONpwpBKbFHLgvq9Ydx1U-33">
          <mxGeometry relative="1" as="geometry" />
        </mxCell>
        <mxCell id="ONpwpBKbFHLgvq9Ydx1U-28" value="Vue 1.1: Reaktivität: reactive, ref, computed, watch" style="rounded=0;whiteSpace=wrap;html=1;" vertex="1" parent="1">
          <mxGeometry x="560" y="200" width="120" height="40" as="geometry" />
        </mxCell>
        <mxCell id="ONpwpBKbFHLgvq9Ydx1U-29" value="Vue 1.1.1: Fundament: Reaktive Datenmodelle" style="rounded=0;whiteSpace=wrap;html=1;" vertex="1" parent="1">
          <mxGeometry x="760" y="40" width="240" height="40" as="geometry" />
        </mxCell>
        <mxCell id="ONpwpBKbFHLgvq9Ydx1U-30" value="2. Ableiten &amp;amp; Beobachten" style="rounded=0;whiteSpace=wrap;html=1;" vertex="1" parent="1">
          <mxGeometry x="760" y="120" width="240" height="40" as="geometry" />
        </mxCell>
        <mxCell id="ONpwpBKbFHLgvq9Ydx1U-31" value="3. Best Practices &amp;amp; Caveats" style="rounded=0;whiteSpace=wrap;html=1;" vertex="1" parent="1">
          <mxGeometry x="760" y="200" width="240" height="40" as="geometry" />
        </mxCell>
        <mxCell id="ONpwpBKbFHLgvq9Ydx1U-32" value="4. Fortgeschrittene Patterns" style="rounded=0;whiteSpace=wrap;html=1;" vertex="1" parent="1">
          <mxGeometry x="760" y="280" width="240" height="40" as="geometry" />
        </mxCell>
        <mxCell id="ONpwpBKbFHLgvq9Ydx1U-33" value="5. Performance &amp;amp; Debugging" style="rounded=0;whiteSpace=wrap;html=1;" vertex="1" parent="1">
          <mxGeometry x="760" y="360" width="240" height="40" as="geometry" />
        </mxCell>
      </root>
    </mxGraphModel>
  </diagram>
</mxfile>
